<svg version="1.1" id="Layer_1" xmlns="http://www.w3.org/2000/svg" xmlns:xlink="http://www.w3.org/1999/xlink" x="0px" y="0px"
	 width="100%" viewBox="0 0 852 521" enable-background="new 0 0 852 521" xml:space="preserve">
<rect x="0" y="0" width="852" height="521" fill="#000000"/>
<path fill="#FFFFFF" d="M761,422 C658.196,422 555.891,422 453.294,422 C453.294,412.394 453.294,402.988 453.294,393.182 C505.282,393.182 557.352,393.182 609.71,393.182 C609.71,306.052 609.71,219.319 609.71,132.187 C563.057,132.187 516.32,132.187 469.292,132.187 C469.292,122.391 469.292,112.985 469.292,103.288 C574.283,103.288 679.349,103.288 784.707,103.288 C784.707,112.608 784.707,122.014 784.707,131.82 C737.049,131.82 689.312,131.82 641.288,131.82 C641.288,218.95 641.288,305.684 641.288,392.815 C694.279,392.815 747.349,392.815 800.709,392.815 C800.709,402.611 800.709,412.017 800.709,422 C787.692,422 774.596,422 761,422 z"/>
<path fill="#FFFFFF" d="M120.267,358.236 C129.841,349.335 139.715,341.207 148.35,331.925 C164.279,314.802 178.238,296.199 189.383,275.428 C200.132,255.397 207.223,234.2 211.792,212.148 C213.836,202.281 214.724,192.032 214.861,181.939 C215.255,152.778 215,123.608 215,94.441 C215,92.802 215,91.164 215,89.264 C225.668,89.264 236.074,89.264 247,89.264 C247,90.874 247,92.479 247,94.085 C247,117.585 247.149,141.087 246.951,164.585 C246.802,182.346 249.415,199.718 255.251,216.357 C261.129,233.117 268.292,249.431 275.006,265.893 C282.402,284.028 291.75,301.228 304.25,316.218 C314.982,329.087 326.873,341.137 339.277,352.421 C349.799,361.993 361.41,370.513 373.232,378.471 C385.35,386.628 398.308,393.535 410.896,400.994 C411.584,401.401 412.243,401.856 413.08,402.394 C407.513,413.012 402.016,423.498 396.382,434.245 C318.994,394.303 265.424,333.515 235.101,251.395 C220.802,291.754 199.456,327.202 170.498,358.004 C141.455,388.896 107.85,413.777 70.556,434.158 C64.965,424.49 59.503,415.046 53.78,405.15 C61.006,400.714 68.421,396.762 75.176,391.894 C90.294,381.001 105.084,369.651 120.267,358.236 z"/>
</svg>